<?xml version="1.0" encoding="utf-8"?>
<!-- Generator: Adobe Illustrator 24.2.3, SVG Export Plug-In . SVG Version: 6.00 Build 0)  -->
<svg version="1.1" xmlns="http://www.w3.org/2000/svg" xmlns:xlink="http://www.w3.org/1999/xlink" x="0px" y="0px"
	 viewBox="0 0 31.9 32" style="enable-background:new 0 0 31.9 32;" xml:space="preserve">
<style type="text/css">
	.st0{fill:#CDF570;}
	.st1{display:none;fill:#FE0000;}
	.st2{display:none;}
	.st3{display:inline;fill:#FE0000;}
	.st4{display:inline;fill:#FFCC00;}
	.st5{display:inline;fill:#AA0000;}
	.st6{display:inline;fill:#AA8900;}
	.st7{display:inline;fill:#385624;}
	.st8{display:inline;fill:#132B00;}
	.st9{display:none;fill:#FFCC00;}
	.st10{display:none;fill:#385624;}
	.st11{display:inline;fill:none;}
	.st12{display:none;fill:none;}
	.st13{display:none;fill:#AA0000;}
	.st14{fill:#385624;}
	.st15{fill:#FFCC00;}
	.st16{fill:#FE0000;}
	.st17{fill:none;}
</style>
<g id="Слой_2">
	<circle class="st0" cx="15.9" cy="16" r="15.4"/>
	<path class="st1" d="M22.7,3.6l-6.1,4v19.8h9.7c0.9-0.8,1.8-1.8,2.5-2.8v-17L22.7,3.6z"/>
	<g class="st2">
		<polygon class="st3" points="16.7,27.4 28.8,27.4 28.8,7.6 22.7,3.6 16.7,7.6 		"/>
		<polygon class="st4" points="10.6,36.6 22.7,36.6 22.7,16.8 16.7,12.8 10.6,16.8 		"/>
		<polygon class="st5" points="28.8,7.8 22.7,11.8 22.7,30.8 28.8,27.5 		"/>
		<polygon class="st6" points="22.7,17 16.7,21 16.7,36.7 22.7,36.7 		"/>
		<polygon class="st7" points="4.5,44.6 16.7,44.6 16.7,24.7 10.6,20.8 4.5,24.7 		"/>
		<polygon class="st8" points="16.7,25 10.6,28.9 10.6,44.7 16.7,44.7 		"/>
	</g>
	<path class="st9" d="M16.7,12.8l-6.1,4v13.7c1.7,0.6,3.5,1,5.3,1c2.4,0,4.7-0.6,6.8-1.6V16.8L16.7,12.8z"/>
	<path class="st10" d="M4.5,24.7v1.7c2.8,3.1,6.9,5.1,11.4,5.1c0.2,0,0.5,0,0.7,0v-6.7l-6.1-4L4.5,24.7z"/>
	<g class="st2">
		<path class="st11" d="M15.9,0.6C7.4,0.6,0.5,7.5,0.5,16c0,6.6,4.2,12.3,10.1,14.5v-1.5l6.1-4v6.4C24.9,31,31.4,24.3,31.4,16
			C31.4,7.5,24.5,0.6,15.9,0.6z"/>
		<path class="st8" d="M10.6,28.9v1.5c1.7,0.6,3.5,1,5.3,1c0.2,0,0.5,0,0.7,0V25L10.6,28.9z"/>
	</g>
	<g class="st2">
		<path class="st11" d="M15.9,0.6C7.4,0.6,0.5,7.5,0.5,16s6.9,15.4,15.4,15.4c0.2,0,0.5,0,0.7,0V21l6.1-4v12.8
			c5.1-2.5,8.7-7.8,8.7-13.9C31.4,7.5,24.5,0.6,15.9,0.6z"/>
		<path class="st6" d="M16.7,21v10.4c2.2-0.1,4.2-0.6,6.1-1.6V17L16.7,21z"/>
	</g>
	<path class="st12" d="M15.9,0.6C7.4,0.6,0.5,7.5,0.5,16c0,6.6,4.2,12.3,10.1,14.5V16.8l6.1-4l6.1,4v13.1c5.1-2.5,8.7-7.8,8.7-13.9
		C31.4,7.5,24.5,0.6,15.9,0.6z"/>
	<path class="st12" d="M22.7,11.8l6.1-4v16.7c1.6-2.5,2.6-5.4,2.6-8.6c0-8.5-6.9-15.4-15.4-15.4C7.4,0.6,0.5,7.5,0.5,16
		s6.9,15.4,15.4,15.4c2.4,0,4.7-0.6,6.8-1.6V11.8z"/>
	<path class="st13" d="M22.7,11.8v18.1c2.5-1.2,4.6-3,6.1-5.3V7.8L22.7,11.8z"/>
	<path class="st12" d="M16.7,27.4V7.6l6.1-4l6.1,4v17c1.6-2.5,2.6-5.4,2.6-8.6c0-8.5-6.9-15.4-15.4-15.4C7.4,0.6,0.5,7.5,0.5,16
		s6.9,15.4,15.4,15.4c4,0,7.6-1.5,10.4-4H16.7z"/>
</g>
<g id="Слой_3">
	<polygon class="st14" points="10.6,16.8 4.7,21.2 10.6,25.7 16.5,21.2 	"/>
	<polygon class="st15" points="16.5,12.3 10.6,16.8 16.5,21.2 22.3,16.8 	"/>
	<polygon class="st16" points="22.3,7.8 16.5,12.3 22.3,16.8 28.2,12.3 	"/>
	<polygon class="st14" points="16.5,21.2 10.6,25.7 16.5,30.2 22.3,25.7 	"/>
	<polygon class="st16" points="22.3,16.8 16.5,21.2 22.3,25.7 28.2,21.2 	"/>
	<path class="st17" d="M15.9,0.6C7.4,0.6,0.5,7.5,0.5,16c0,2.6,0.6,5,1.7,7.1l2.5-1.9l5.9,4.5l-3.7,2.8c2.5,1.8,5.7,2.9,9,2.9
		c8.5,0,15.4-6.9,15.4-15.4S24.5,0.6,15.9,0.6z"/>
	<path class="st15" d="M4.7,21.2l-2.5,1.9c1.1,2.1,2.7,4,4.7,5.4l3.7-2.8L4.7,21.2z"/>
	<path class="st17" d="M15.9,0.6C7.4,0.6,0.5,7.5,0.5,16c0,5.2,2.5,9.7,6.4,12.5l3.7-2.8l5.9,4.5l-1.6,1.2c0.4,0,0.7,0.1,1.1,0.1
		c8.5,0,15.4-6.9,15.4-15.4S24.5,0.6,15.9,0.6z"/>
	<path class="st14" d="M10.6,25.7l-3.7,2.8c2.3,1.6,5,2.7,8,2.9l1.6-1.2L10.6,25.7z"/>
	<path class="st17" d="M15.9,0.6C7.4,0.6,0.5,7.5,0.5,16c0,8.2,6.3,14.8,14.4,15.4l1.6-1.2l1.5,1.1c7.6-1,13.4-7.5,13.4-15.3
		C31.4,7.5,24.5,0.6,15.9,0.6z"/>
	<path class="st15" d="M14.9,31.4c0.4,0,0.7,0.1,1.1,0.1c0.7,0,1.4-0.1,2-0.1l-1.5-1.1L14.9,31.4z"/>
	<path class="st17" d="M16.5,30.2l5.9-4.5l3.2,2.4c3.6-2.8,5.9-7.2,5.9-12.1c0-8.5-6.9-15.4-15.4-15.4C7.4,0.6,0.5,7.5,0.5,16
		s6.9,15.4,15.4,15.4c0.7,0,1.4-0.1,2-0.1L16.5,30.2z"/>
	<path class="st14" d="M16.5,30.2l1.5,1.1c2.8-0.4,5.4-1.5,7.6-3.2l-3.2-2.4L16.5,30.2z"/>
	<path class="st17" d="M22.3,25.7l5.9-4.5l1.7,1.3c0.9-2,1.5-4.2,1.5-6.5c0-8.5-6.9-15.4-15.4-15.4C7.4,0.5,0.5,7.4,0.5,16
		s6.9,15.4,15.4,15.4c3.6,0,6.9-1.3,9.6-3.3L22.3,25.7z"/>
	<path class="st14" d="M22.3,25.7l3.2,2.4c1.9-1.5,3.4-3.4,4.4-5.6l-1.7-1.3L22.3,25.7z"/>
	<path class="st17" d="M28.2,21.2l2.9-2.2c0.2-1,0.3-2,0.3-3c0-8.5-6.9-15.4-15.4-15.4C7.4,0.6,0.5,7.5,0.5,16s6.9,15.4,15.4,15.4
		c6.2,0,11.5-3.6,14-8.9L28.2,21.2z"/>
	<path class="st15" d="M29.9,22.5c0.5-1.1,0.9-2.3,1.2-3.5l-2.9,2.2L29.9,22.5z"/>
	<path class="st17" d="M28.2,21.2l-5.9-4.5l5.9-4.5l3.1,2.4C30.6,6.8,24,0.6,15.9,0.6C7.4,0.6,0.5,7.5,0.5,16s6.9,15.4,15.4,15.4
		c7.5,0,13.7-5.3,15.1-12.4L28.2,21.2z"/>
	<path class="st16" d="M22.3,16.8l5.9,4.5l2.9-2.2c0.2-1,0.3-2,0.3-3c0-0.4,0-0.9-0.1-1.3l-3.1-2.4L22.3,16.8z"/>
	<path class="st17" d="M28.2,12.3l-5.9-4.5l4.1-3.1C23.7,2.1,20,0.6,15.9,0.6C7.4,0.6,0.5,7.5,0.5,16s6.9,15.4,15.4,15.4
		c8.5,0,15.4-6.9,15.4-15.4c0-1.9-0.4-3.7-1-5.4L28.2,12.3z"/>
	<path class="st15" d="M28.2,12.3l2.2-1.7c-0.8-2.3-2.2-4.3-4-5.9l-4.1,3.1L28.2,12.3z"/>
	<path class="st17" d="M28.2,12.3l2.2-1.7C28.2,4.7,22.6,0.6,15.9,0.6C7.4,0.6,0.5,7.5,0.5,16s6.9,15.4,15.4,15.4
		c8.5,0,15.4-6.9,15.4-15.4c0-0.4,0-0.9-0.1-1.3L28.2,12.3z"/>
	<path class="st16" d="M31.3,14.7c-0.1-1.4-0.4-2.8-0.9-4.1l-2.2,1.7L31.3,14.7z"/>
</g>
</svg>
