<?xml version="1.0" encoding="utf-8"?>
<!-- Generator: Adobe Illustrator 24.2.3, SVG Export Plug-In . SVG Version: 6.00 Build 0)  -->
<svg version="1.1" id="Слой_2" xmlns="http://www.w3.org/2000/svg" xmlns:xlink="http://www.w3.org/1999/xlink" x="0px" y="0px"
	 viewBox="0 0 31.9 32" style="enable-background:new 0 0 31.9 32;" xml:space="preserve">
<style type="text/css">
	.st0{fill:#CDF570;}
	.st1{fill:#FE0000;}
	.st2{display:none;}
	.st3{display:inline;fill:#FE0000;}
	.st4{display:inline;fill:#FFCC00;}
	.st5{display:inline;fill:#AA0000;}
	.st6{display:inline;fill:#AA8900;}
	.st7{display:inline;fill:#385624;}
	.st8{display:inline;fill:#132B00;}
	.st9{fill:#FFCC00;}
	.st10{fill:#385624;}
	.st11{fill:none;}
	.st12{fill:#132B00;}
	.st13{fill:#AA8900;}
	.st14{fill:#AA0000;}
</style>
<circle class="st0" cx="15.9" cy="16" r="15.4"/>
<path class="st1" d="M22.7,3.6l-6.1,4v19.8h9.7c0.9-0.8,1.8-1.8,2.5-2.8v-17L22.7,3.6z"/>
<g class="st2">
	<polygon class="st3" points="16.7,27.4 28.8,27.4 28.8,7.6 22.7,3.6 16.7,7.6 	"/>
	<polygon class="st4" points="10.6,36.6 22.7,36.6 22.7,16.8 16.7,12.8 10.6,16.8 	"/>
	<polygon class="st5" points="28.8,7.8 22.7,11.8 22.7,30.8 28.8,27.5 	"/>
	<polygon class="st6" points="22.7,17 16.7,21 16.7,36.7 22.7,36.7 	"/>
	<polygon class="st7" points="4.5,44.6 16.7,44.6 16.7,24.7 10.6,20.8 4.5,24.7 	"/>
	<polygon class="st8" points="16.7,25 10.6,28.9 10.6,44.7 16.7,44.7 	"/>
</g>
<path class="st9" d="M16.7,12.8l-6.1,4v13.7c1.7,0.6,3.5,1,5.3,1c2.4,0,4.7-0.6,6.8-1.6V16.8L16.7,12.8z"/>
<path class="st10" d="M4.5,24.7v1.7c2.8,3.1,6.9,5.1,11.4,5.1c0.2,0,0.5,0,0.7,0v-6.7l-6.1-4L4.5,24.7z"/>
<g>
	<path class="st11" d="M15.9,0.6C7.4,0.6,0.5,7.5,0.5,16c0,6.6,4.2,12.3,10.1,14.5v-1.5l6.1-4v6.4C24.9,31,31.4,24.3,31.4,16
		C31.4,7.5,24.5,0.6,15.9,0.6z"/>
	<path class="st12" d="M10.6,28.9v1.5c1.7,0.6,3.5,1,5.3,1c0.2,0,0.5,0,0.7,0V25L10.6,28.9z"/>
</g>
<g>
	<path class="st11" d="M15.9,0.6C7.4,0.6,0.5,7.5,0.5,16s6.9,15.4,15.4,15.4c0.2,0,0.5,0,0.7,0V21l6.1-4v12.8
		c5.1-2.5,8.7-7.8,8.7-13.9C31.4,7.5,24.5,0.6,15.9,0.6z"/>
	<path class="st13" d="M16.7,21v10.4c2.2-0.1,4.2-0.6,6.1-1.6V17L16.7,21z"/>
</g>
<path class="st11" d="M15.9,0.6C7.4,0.6,0.5,7.5,0.5,16c0,6.6,4.2,12.3,10.1,14.5V16.8l6.1-4l6.1,4v13.1c5.1-2.5,8.7-7.8,8.7-13.9
	C31.4,7.5,24.5,0.6,15.9,0.6z"/>
<path class="st11" d="M22.7,11.8l6.1-4v16.7c1.6-2.5,2.6-5.4,2.6-8.6c0-8.5-6.9-15.4-15.4-15.4C7.4,0.6,0.5,7.5,0.5,16
	s6.9,15.4,15.4,15.4c2.4,0,4.7-0.6,6.8-1.6V11.8z"/>
<path class="st14" d="M22.7,11.8v18.1c2.5-1.2,4.6-3,6.1-5.3V7.8L22.7,11.8z"/>
<path class="st11" d="M16.7,27.4V7.6l6.1-4l6.1,4v17c1.6-2.5,2.6-5.4,2.6-8.6c0-8.5-6.9-15.4-15.4-15.4C7.4,0.6,0.5,7.5,0.5,16
	s6.9,15.4,15.4,15.4c4,0,7.6-1.5,10.4-4H16.7z"/>
</svg>
